<svg width="123" height="79" viewBox="0 0 123 79" fill="none" xmlns="http://www.w3.org/2000/svg">
<path fill-rule="evenodd" clip-rule="evenodd" d="M50.5685 17.2001C40.7285 10.3101 30.9985 8.79005 20.9385 11.4201C23.1385 6.13005 26.4485 2.66005 30.3385 1.03005C35.8485 -1.27995 44.8685 0.360051 48.4185 5.30005C50.2385 7.82005 51.1485 11.5601 50.5685 17.2001ZM83.5185 55.32C83.2485 54.2 83.9485 53.0801 85.0685 52.8101C86.1885 52.5401 87.3085 53.2401 87.5785 54.3601C88.1185 56.6301 89.0485 58.39 90.2885 59.66C91.5585 60.95 93.1885 61.78 95.1285 62.16C96.2585 62.38 96.9885 63.4701 96.7685 64.6001C96.5485 65.7301 95.4585 66.4601 94.3285 66.2401C91.5685 65.6901 89.1985 64.48 87.3285 62.57C85.5385 60.75 84.2385 58.35 83.5185 55.32ZM13.5385 55.32C13.2685 54.2 13.9685 53.0801 15.0885 52.8101C16.2085 52.5401 17.3285 53.2401 17.5985 54.3601C18.1385 56.6301 19.0685 58.39 20.3085 59.66C21.5785 60.95 23.2085 61.78 25.1485 62.16C26.2785 62.38 27.0085 63.4701 26.7885 64.6001C26.5685 65.7301 25.4785 66.4601 24.3485 66.2401C21.5885 65.6901 19.2185 64.48 17.3485 62.57C15.5585 60.75 14.2585 58.35 13.5385 55.32ZM61.2985 47.71C64.0985 47.71 66.3685 49.92 66.3685 52.64C66.3685 55.36 64.0985 57.57 61.2985 57.57C58.4985 57.57 56.2285 55.36 56.2285 52.64C56.2285 49.92 58.4985 47.71 61.2985 47.71ZM26.6585 34.57C36.6585 34.57 44.7685 42.4501 44.7685 52.18C44.7685 61.9001 36.6585 69.7901 26.6585 69.7901C16.6585 69.7901 8.54851 61.91 8.54851 52.18C8.54851 42.4501 16.6485 34.57 26.6585 34.57ZM96.6385 34.57C106.639 34.57 114.749 42.4501 114.749 52.18C114.749 61.9001 106.639 69.7901 96.6385 69.7901C86.6385 69.7901 78.5285 61.91 78.5285 52.18C78.5285 42.4501 86.6285 34.57 96.6385 34.57ZM72.3085 17.2001C82.1485 10.3101 91.8785 8.79005 101.929 11.4201C99.7285 6.13005 96.4185 2.66005 92.5285 1.03005C87.0185 -1.27995 77.9985 0.360051 74.4585 5.30005C72.6385 7.82005 71.7285 11.5601 72.3085 17.2001ZM107.569 17.4C104.149 13.88 98.6085 12.2901 90.9385 12.6301C82.2485 13.0601 73.0685 16.6901 70.1185 24.92C67.6485 19.5 55.2285 19.5 52.7685 24.92C49.8185 16.6901 40.6385 13.0501 31.9485 12.6301C24.2785 12.2901 18.7485 13.89 15.3185 17.4C10.4985 23.86 0.95851 40.7401 0.15851 48.9901C-3.10149 82.4701 44.9185 90.87 52.6185 56.3C56.9885 64.05 65.8885 64.05 70.2585 56.3C77.9585 90.8801 125.979 82.4701 122.719 48.9901C121.919 40.7401 112.379 23.86 107.569 17.4Z" fill="white"/>
</svg>
