<svg width="116" height="123" viewBox="0 0 116 123" fill="none" xmlns="http://www.w3.org/2000/svg">
<path fill-rule="evenodd" clip-rule="evenodd" d="M21.92 57H90.24V37.34H69.58C67.41 37.34 64.39 36.17 62.96 34.74C61.53 33.31 60.66 30.73 60.66 28.57V7.64H8.14C7.96 7.64 7.82 7.73 7.73 7.82C7.58 7.92 7.54 8.05 7.54 8.24V114.69C7.54 114.83 7.63 115.01 7.72 115.1C7.81 115.24 8 115.28 8.13 115.28C30.91 115.28 66.22 115.28 89.64 115.28C89.82 115.28 89.81 115.19 89.91 115.1C90.05 115.01 90.24 114.82 90.24 114.69V103.53H21.92C17.78 103.53 14.36 100.13 14.36 95.97V64.55C14.37 60.4 17.77 57 21.92 57ZM25.96 69.89H34.86C36.61 69.89 38.03 70.13 39.11 70.6C40.19 71.08 41.08 71.76 41.79 72.65C42.49 73.54 43 74.58 43.32 75.76C43.64 76.94 43.8 78.19 43.8 79.51C43.8 81.58 43.57 83.18 43.09 84.33C42.62 85.47 41.97 86.43 41.13 87.2C40.29 87.97 39.39 88.48 38.43 88.74C37.12 89.09 35.93 89.27 34.86 89.27H25.96V69.89ZM31.93 74.27V84.85H33.4C34.65 84.85 35.55 84.71 36.08 84.43C36.61 84.15 37.02 83.67 37.32 82.98C37.62 82.29 37.77 81.17 37.77 79.62C37.77 77.57 37.44 76.17 36.76 75.41C36.09 74.65 34.97 74.27 33.42 74.27H31.93ZM44.86 79.59C44.86 76.43 45.74 73.97 47.5 72.21C49.26 70.45 51.72 69.57 54.86 69.57C58.08 69.57 60.57 70.44 62.31 72.16C64.06 73.89 64.93 76.32 64.93 79.43C64.93 81.69 64.55 83.55 63.79 84.99C63.03 86.44 61.92 87.56 60.49 88.37C59.05 89.18 57.25 89.58 55.1 89.58C52.92 89.58 51.11 89.23 49.68 88.54C48.25 87.84 47.09 86.74 46.2 85.24C45.3 83.74 44.86 81.85 44.86 79.59ZM50.83 79.6C50.83 81.55 51.2 82.96 51.92 83.81C52.65 84.66 53.64 85.09 54.9 85.09C56.18 85.09 57.19 84.67 57.89 83.84C58.6 83 58.95 81.5 58.95 79.34C58.95 77.52 58.58 76.19 57.85 75.35C57.11 74.51 56.11 74.09 54.85 74.09C53.64 74.09 52.67 74.52 51.94 75.37C51.2 76.22 50.83 77.63 50.83 79.6ZM79.75 81.33L85 82.91C84.65 84.38 84.09 85.61 83.33 86.59C82.57 87.58 81.63 88.32 80.51 88.82C79.39 89.32 77.96 89.57 76.22 89.57C74.11 89.57 72.39 89.26 71.05 88.65C69.72 88.04 68.57 86.96 67.6 85.42C66.63 83.88 66.14 81.91 66.14 79.51C66.14 76.31 66.99 73.85 68.7 72.12C70.41 70.4 72.82 69.54 75.94 69.54C78.38 69.54 80.3 70.03 81.7 71.02C83.09 72.01 84.13 73.52 84.81 75.57L79.53 76.74C79.35 76.15 79.15 75.73 78.95 75.46C78.61 75 78.2 74.65 77.72 74.41C77.23 74.16 76.69 74.04 76.09 74.04C74.73 74.04 73.69 74.59 72.97 75.67C72.42 76.48 72.15 77.75 72.15 79.48C72.15 81.63 72.47 83.09 73.13 83.89C73.78 84.68 74.7 85.08 75.88 85.08C77.03 85.08 77.89 84.76 78.48 84.12C79.06 83.49 79.48 82.56 79.75 81.33ZM85.26 69.89H91.86L95.29 75.85L98.62 69.89H105.14L99.12 79.27L105.71 89.26H98.97L95.17 83.04L91.34 89.26H84.66L91.34 79.16L85.26 69.89ZM97.78 57H107.71C111.87 57 115.27 60.41 115.27 64.56V95.98C115.27 100.13 111.86 103.54 107.71 103.54H97.78V117.09C97.78 118.7 97.13 120.13 96.08 121.19C95.02 122.25 93.59 122.89 91.98 122.89C62.54 122.89 35.39 122.89 5.8 122.89C4.19 122.89 2.76 122.25 1.7 121.19C0.64 120.13 0 118.7 0 117.09V5.85C0 4.24 0.65 2.81 1.7 1.75C2.76 0.69 4.23 0.05 5.8 0.05H64.52C64.65 0 64.79 0 64.93 0C65.57 0 66.22 0.28 66.68 0.69H66.77C66.86 0.74 66.91 0.78 67 0.87L96.99 31.23C97.5 31.74 97.87 32.43 97.87 33.21C97.87 33.44 97.82 33.62 97.78 33.86V57ZM67.51 27.97V8.94L88.94 30.64H70.18C69.44 30.64 68.8 30.32 68.29 29.86C67.83 29.4 67.51 28.71 67.51 27.97Z" fill="white"/>
</svg>
