<svg width="93" height="123" viewBox="0 0 93 123" fill="none" xmlns="http://www.w3.org/2000/svg">
<path fill-rule="evenodd" clip-rule="evenodd" d="M90.7253 63.4209C87.6153 78.4609 79.9253 93.7509 68.5453 106.221L68.5153 106.271C62.9153 112.391 56.4253 117.881 49.0953 122.331C48.2153 122.991 46.9653 123.081 45.9653 122.441C35.1653 115.571 26.1153 107.311 18.9753 98.3509C9.14528 86.0209 2.93528 72.3409 0.82528 59.1609C-1.32472 45.8009 0.68528 32.9609 7.33528 22.4809C9.96528 18.3509 13.3053 14.5909 17.4053 11.3409C26.7753 3.88091 37.5053 -0.0690855 48.1653 0.000914516C58.4453 0.0909145 68.5853 3.90092 77.3853 11.9309C80.4753 14.7409 83.0553 17.9209 85.1653 21.4109C92.3153 33.1809 93.8553 48.2209 90.7253 63.4209ZM29.2053 31.6309H38.1153V60.3609H29.2053V31.6309ZM42.9753 31.6309H57.7453C60.9653 31.6309 63.3753 32.3909 64.9753 33.9209C66.5753 35.4509 67.3753 37.6309 67.3753 40.4609C67.3753 43.3609 66.4953 45.6409 64.7553 47.2709C63.0053 48.9109 60.3453 49.7209 56.7553 49.7209H51.8853V60.3509H42.9753V31.6309ZM51.8853 43.9109H54.0753C55.8053 43.9109 57.0153 43.6109 57.7053 43.0109C58.4053 42.4109 58.7453 41.6509 58.7453 40.7209C58.7453 39.8209 58.4453 39.0609 57.8353 38.4309C57.2353 37.8009 56.0953 37.4909 54.4253 37.4909H51.8853V43.9109ZM46.1253 13.2509C55.3553 13.2509 63.7453 17.0009 69.7753 23.0609C75.8353 29.1209 79.5853 37.4709 79.5853 46.7109C79.5853 55.9409 75.8353 64.3309 69.7753 70.3609C63.7153 76.4209 55.3653 80.1709 46.1253 80.1709C36.8953 80.1709 28.5053 76.4209 22.4753 70.3609C16.4153 64.3009 12.6653 55.9509 12.6653 46.7109C12.6653 37.4809 16.4153 29.1009 22.4753 23.0609C28.5453 17.0009 36.8853 13.2509 46.1253 13.2509Z" fill="white"/>
</svg>
