<svg width="116" height="123" viewBox="0 0 116 123" fill="none" xmlns="http://www.w3.org/2000/svg">
<path fill-rule="evenodd" clip-rule="evenodd" d="M25.37 57H90.25V37.34H69.58C67.41 37.34 64.39 36.17 62.96 34.74C61.53 33.31 60.66 30.73 60.66 28.57V7.64H8.14C7.96 7.64 7.82 7.73 7.73 7.82C7.58 7.92 7.54 8.05 7.54 8.24V114.69C7.54 114.83 7.63 115.01 7.72 115.1C7.81 115.24 8 115.28 8.13 115.28C30.91 115.28 66.22 115.28 89.64 115.28C89.82 115.28 89.81 115.19 89.91 115.1C90.05 115.01 90.24 114.82 90.24 114.69V103.53H25.37C21.23 103.53 17.81 100.13 17.81 95.97V64.55C17.81 60.4 21.21 57 25.37 57ZM29.49 67.4H42.68C45.55 67.4 47.7 68.08 49.14 69.45C50.57 70.82 51.28 72.76 51.28 75.29C51.28 77.88 50.5 79.91 48.94 81.37C47.38 82.83 45 83.56 41.8 83.56H37.45V93.05H29.49V67.4ZM37.44 78.37H39.39C40.93 78.37 42.01 78.1 42.63 77.57C43.25 77.04 43.56 76.36 43.56 75.53C43.56 74.72 43.29 74.04 42.75 73.48C42.21 72.92 41.2 72.64 39.7 72.64H37.43V78.37H37.44ZM54.98 67.4H66.76C69.08 67.4 70.96 67.72 72.39 68.34C73.82 68.97 75 69.87 75.94 71.05C76.87 72.23 77.55 73.6 77.96 75.16C78.38 76.72 78.59 78.38 78.59 80.13C78.59 82.87 78.28 85 77.65 86.51C77.03 88.02 76.16 89.29 75.05 90.31C73.94 91.33 72.75 92.01 71.48 92.35C69.74 92.82 68.17 93.05 66.76 93.05H54.98V67.4ZM62.89 73.21V87.22H64.84C66.5 87.22 67.68 87.03 68.39 86.67C69.09 86.3 69.64 85.66 70.04 84.75C70.44 83.83 70.64 82.35 70.64 80.3C70.64 77.58 70.2 75.73 69.31 74.72C68.42 73.72 66.95 73.22 64.89 73.22H62.89V73.21ZM82.24 67.4H101.84V72.92H90.2V77.4H100.16V82.6H90.2V93.06H82.25V67.4H82.24ZM97.78 57H107.71C111.87 57 115.27 60.41 115.27 64.56V95.98C115.27 100.13 111.86 103.54 107.71 103.54H97.78V117.09C97.78 118.7 97.13 120.13 96.08 121.19C95.02 122.25 93.59 122.89 91.98 122.89C62.54 122.89 35.39 122.89 5.8 122.89C4.19 122.89 2.76 122.25 1.7 121.19C0.64 120.13 0 118.7 0 117.09V5.85C0 4.24 0.65 2.81 1.7 1.75C2.76 0.69 4.23 0.05 5.8 0.05H64.52C64.65 0 64.79 0 64.93 0C65.57 0 66.22 0.28 66.68 0.69H66.77C66.86 0.74 66.91 0.78 67 0.87L96.99 31.23C97.5 31.74 97.87 32.43 97.87 33.21C97.87 33.44 97.82 33.62 97.78 33.86V57ZM67.51 27.97V8.94L88.94 30.64H70.18C69.44 30.64 68.8 30.32 68.29 29.86C67.83 29.4 67.51 28.71 67.51 27.97Z" fill="white"/>
</svg>
