<svg width="116" height="123" viewBox="0 0 116 123" fill="none" xmlns="http://www.w3.org/2000/svg">
<path fill-rule="evenodd" clip-rule="evenodd" d="M25.37 57H90.25V37.34H69.58C67.41 37.34 64.39 36.17 62.96 34.74C61.53 33.31 60.66 30.73 60.66 28.57V7.64H8.14C7.96 7.64 7.82 7.73 7.73 7.82C7.58 7.92 7.54 8.05 7.54 8.24V114.69C7.54 114.83 7.63 115.01 7.72 115.1C7.81 115.24 8 115.28 8.13 115.28C30.91 115.28 66.22 115.28 89.64 115.28C89.82 115.28 89.81 115.19 89.91 115.1C90.05 115.01 90.24 114.82 90.24 114.69V103.53H25.37C21.23 103.53 17.81 100.13 17.81 95.97V64.55C17.81 60.4 21.21 57 25.37 57ZM29.55 68.12H51.89V74H44.39V91.9H37.05V74H29.55V68.12ZM53.62 68.12H61.72L65.93 75.44L70.02 68.12H78.02L70.63 79.64L78.71 91.9H70.44L65.78 84.26L61.08 91.9H52.88L61.08 79.51L53.62 68.12ZM79.48 68.12H101.82V74H94.32V91.9H86.98V74H79.48V68.12ZM97.78 57H107.71C111.87 57 115.27 60.41 115.27 64.56V95.98C115.27 100.13 111.86 103.54 107.71 103.54H97.78V117.09C97.78 118.7 97.13 120.13 96.08 121.19C95.02 122.25 93.59 122.89 91.98 122.89C62.54 122.89 35.39 122.89 5.8 122.89C4.19 122.89 2.76 122.25 1.7 121.19C0.64 120.13 0 118.7 0 117.09V5.85C0 4.24 0.65 2.81 1.7 1.75C2.76 0.69 4.23 0.05 5.8 0.05H64.52C64.65 0 64.79 0 64.93 0C65.57 0 66.22 0.28 66.68 0.69H66.77C66.86 0.74 66.91 0.78 67 0.87L96.99 31.23C97.5 31.74 97.87 32.43 97.87 33.21C97.87 33.44 97.82 33.62 97.78 33.86V57ZM67.51 27.97V8.94L88.94 30.64H70.18C69.44 30.64 68.8 30.32 68.29 29.86C67.83 29.4 67.51 28.71 67.51 27.97Z" fill="white"/>
</svg>
